<?xml version="1.0" encoding="UTF-8" standalone="no"?>
<!-- Created with Inkscape (http://www.inkscape.org/) -->

<svg
   xmlns:dc="http://purl.org/dc/elements/1.1/"
   xmlns:cc="http://creativecommons.org/ns#"
   xmlns:rdf="http://www.w3.org/1999/02/22-rdf-syntax-ns#"
   xmlns:svg="http://www.w3.org/2000/svg"
   xmlns="http://www.w3.org/2000/svg"
   xmlns:sodipodi="http://sodipodi.sourceforge.net/DTD/sodipodi-0.dtd"
   xmlns:inkscape="http://www.inkscape.org/namespaces/inkscape"
   width="99.122055mm"
   height="20.963266mm"
   viewBox="0 0 99.122055 20.963266"
   version="1.1"
   id="svg8"
   sodipodi:docname="logo.svg"
   inkscape:version="0.92.4 (5da689c313, 2019-01-14)">
  <defs
     id="defs2" />
  <sodipodi:namedview
     id="base"
     pagecolor="#ffffff"
     bordercolor="#666666"
     borderopacity="1.0"
     inkscape:pageopacity="0.0"
     inkscape:pageshadow="2"
     inkscape:zoom="0.98994949"
     inkscape:cx="83.96935"
     inkscape:cy="-23.157403"
     inkscape:document-units="mm"
     inkscape:current-layer="layer1"
     showgrid="false"
     inkscape:window-width="1366"
     inkscape:window-height="705"
     inkscape:window-x="-8"
     inkscape:window-y="269"
     inkscape:window-maximized="1"
     fit-margin-top="0"
     fit-margin-left="0"
     fit-margin-right="0"
     fit-margin-bottom="0" />
  <metadata
     id="metadata5">
    <rdf:RDF>
      <cc:Work
         rdf:about="">
        <dc:format>image/svg+xml</dc:format>
        <dc:type
           rdf:resource="http://purl.org/dc/dcmitype/StillImage" />
        <dc:title></dc:title>
      </cc:Work>
    </rdf:RDF>
  </metadata>
  <g
     inkscape:label="Layer 1"
     inkscape:groupmode="layer"
     id="layer1"
     transform="translate(-17.506154,-210.73106)">
    <g
       id="g4566"
       transform="translate(-4.0754318,0.37251932)">
      <path
         style="fill:#f36262;stroke-width:0.04858158"
         d="m 63.731504,231.28846 c -4.2057,-0.4063 -7.601458,-2.43199 -9.095802,-5.42596 -0.884141,-1.7714 -1.087778,-3.74618 -0.627639,-6.08655 0.217405,-1.10577 0.695676,-2.28283 1.290813,-3.1768 0.406948,-0.61128 1.193084,-1.42761 1.774893,-1.84306 0.773919,-0.55263 1.878357,-1.03339 2.757651,-1.20039 0.17344,-0.0329 0.334262,-0.077 0.357381,-0.0978 0.02312,-0.0208 -0.0288,-0.12604 -0.115381,-0.23378 -0.266781,-0.33197 -0.191588,-0.58966 0.172065,-0.58966 0.162325,0 0.364344,0.0788 0.915669,0.35736 l 0.707394,0.35736 0.538217,0.0341 c 0.29602,0.0187 0.74839,0.0656 1.005267,0.10417 0.256877,0.0386 0.485351,0.0701 0.507719,0.0701 0.02237,0 0.04083,-0.28967 0.04104,-0.6437 7.16e-4,-1.25295 0.201564,-1.88148 0.679074,-2.12509 0.506905,-0.2586 1.641985,-0.47293 2.239408,-0.42284 0.392245,0.0329 0.601725,0.13516 0.76104,0.37157 0.219544,0.32578 0.115252,1.13558 -0.275969,2.14283 -0.108348,0.27896 -0.197118,0.52319 -0.197267,0.54274 -1.45e-4,0.0195 0.365915,0.027 0.813472,0.0166 l 0.813742,-0.0189 0.558688,-0.26933 c 0.73519,-0.3544 0.967452,-0.41692 1.136802,-0.30595 0.183403,0.12017 0.171896,0.34466 -0.02825,0.55116 -0.08501,0.0877 -0.143596,0.17044 -0.130185,0.18385 0.0134,0.0134 0.235513,0.0779 0.493562,0.1434 3.050746,0.77389 4.920426,3.11046 5.387032,6.73226 0.09794,0.76024 0.07283,2.30068 -0.0484,2.96885 -0.310156,1.70946 -1.057681,3.1555 -2.291588,4.43293 -0.839098,0.86869 -1.740382,1.53009 -2.830907,2.07743 -1.30497,0.65498 -2.490381,1.02545 -4.044276,1.26394 -0.724494,0.1112 -2.527744,0.16047 -3.265264,0.0892 z"
         id="path4545"
         inkscape:connector-curvature="0" />
      <path
         style="fill:#fe1212;fill-opacity:1;stroke-width:0.04858158"
         d="m 63.620347,231.23541 c -4.737164,-0.47565 -8.388518,-3.05358 -9.466629,-6.68363 -0.259125,-0.87248 -0.319241,-1.34239 -0.318869,-2.49249 3.68e-4,-1.1607 0.06677,-1.73025 0.318167,-2.72913 0.389263,-1.54669 1.049554,-2.74886 2.080396,-3.78769 1.062432,-1.07068 2.090065,-1.60551 3.852625,-2.0051 0.170865,-0.0387 0.168037,-0.0885 -0.01822,-0.32022 -0.26134,-0.3252 -0.182831,-0.58269 0.177664,-0.58269 0.163325,0 0.363877,0.0792 0.929247,0.36708 l 0.720971,0.36708 0.728723,0.069 c 0.400798,0.038 0.845796,0.0913 0.988884,0.11844 0.143088,0.0272 0.279724,0.0373 0.303635,0.0226 0.02391,-0.0148 0.04364,-0.31525 0.04384,-0.66771 7.16e-4,-1.24992 0.201948,-1.87881 0.679074,-2.12222 0.506905,-0.2586 1.641985,-0.47293 2.239408,-0.42284 0.392245,0.0329 0.601724,0.13516 0.76104,0.37157 0.219544,0.32578 0.115252,1.13558 -0.275969,2.14283 -0.108348,0.27896 -0.197118,0.53439 -0.197267,0.56762 -2.02e-4,0.0468 0.175228,0.0544 0.777065,0.0337 l 0.777335,-0.0268 0.595095,-0.28659 c 0.771008,-0.37131 1.002111,-0.43489 1.173209,-0.32279 0.182097,0.11932 0.173576,0.35715 -0.01943,0.54206 -0.08016,0.0768 -0.145745,0.16678 -0.145745,0.19997 0,0.0342 0.118168,0.0849 0.272434,0.11689 0.149838,0.0311 0.472299,0.12291 0.716577,0.20401 2.137899,0.70972 3.610821,2.18836 4.368901,4.38587 0.57777,1.67482 0.724293,3.80362 0.375413,5.45427 -0.840832,3.97822 -4.636764,6.94077 -9.571269,7.46993 -0.705459,0.0756 -2.194244,0.0845 -2.866313,0.017 z m -8.330391,-7.81063 c -0.27062,-1.04436 -0.167335,-2.54019 0.271669,-3.93447 0.192399,-0.61106 0.702388,-1.6421 1.024175,-2.07056 0.355448,-0.47329 1.16129,-1.2946 1.577919,-1.6082 0.42258,-0.31809 0.960402,-0.61376 1.543104,-0.84833 0.23899,-0.0962 0.442764,-0.19964 0.452831,-0.22984 0.03231,-0.0969 -0.219869,-0.11923 -0.703159,-0.0622 -1.235772,0.14575 -2.322163,0.77123 -3.084857,1.77608 -0.392307,0.51686 -0.885705,1.48769 -1.126102,2.21577 -0.541863,1.6411 -0.590284,3.51718 -0.123454,4.78331 0.199128,0.54007 0.309723,0.5259 0.167874,-0.0215 z"
         id="path4543"
         inkscape:connector-curvature="0" />
      <path
         style="fill:#34af48;stroke-width:0.04858158"
         d="m 63.790384,231.23754 c -5.116322,-0.48467 -8.880837,-3.27576 -9.758286,-7.23499 -0.235743,-1.06372 -0.265115,-2.06754 -0.09988,-3.4135 0.35874,-2.92219 1.844257,-5.2166 4.117497,-6.35957 0.456652,-0.2296 1.380967,-0.5453 1.841998,-0.62913 0.378764,-0.0689 0.396932,-0.10841 0.176108,-0.3832 -0.26134,-0.3252 -0.182831,-0.58269 0.177664,-0.58269 0.163205,0 0.364292,0.0793 0.929247,0.36655 0.667555,0.33938 0.753365,0.37016 1.158205,0.41533 0.240479,0.0268 0.68418,0.0812 0.986003,0.12077 0.301823,0.0396 0.569629,0.0591 0.595124,0.0433 0.0256,-0.0158 0.04652,-0.31562 0.04672,-0.66949 7.16e-4,-1.24992 0.201948,-1.87881 0.679074,-2.12222 0.506905,-0.2586 1.641985,-0.47293 2.239408,-0.42284 0.392245,0.0329 0.601725,0.13516 0.76104,0.37157 0.219544,0.32578 0.115252,1.13558 -0.275969,2.14283 -0.108348,0.27896 -0.197118,0.53644 -0.197267,0.57219 -2.02e-4,0.0523 0.14881,0.0613 0.764891,0.046 l 0.76516,-0.019 0.607269,-0.29896 c 0.775589,-0.38183 1.012097,-0.4487 1.185384,-0.33516 0.182736,0.11974 0.173583,0.35714 -0.02096,0.54352 -0.081,0.0776 -0.141121,0.17142 -0.133598,0.20849 0.0083,0.0411 0.193147,0.11269 0.473252,0.18342 2.416377,0.61009 4.136333,2.25499 4.922521,4.70769 0.517306,1.61386 0.643631,3.61646 0.326342,5.17342 -0.801048,3.93081 -4.385032,6.84334 -9.23648,7.50604 -0.679709,0.0928 -2.373996,0.13172 -3.030474,0.0695 z m 2.13759,-0.43492 c 4.557242,-0.33193 8.201443,-2.75287 9.420015,-6.25797 0.296089,-0.85166 0.374532,-1.3214 0.403699,-2.41742 0.04691,-1.7629 -0.215495,-3.16744 -0.836805,-4.47904 -0.884103,-1.86636 -2.536697,-3.12202 -4.653207,-3.53555 l -0.427293,-0.0835 -0.204268,0.15178 c -0.112347,0.0835 -0.537659,0.38688 -0.945137,0.67424 -0.407478,0.28735 -0.740869,0.53924 -0.740869,0.55974 0,0.0205 0.04644,0.0373 0.103205,0.0373 0.416163,0 2.047829,0.43419 2.938535,0.78194 0.79063,0.30868 1.107115,0.57905 1.015548,0.86755 -0.09424,0.29691 -0.426879,0.30802 -1.725372,0.0576 -1.587545,-0.30612 -3.06064,-0.47453 -3.06064,-0.34989 0,0.10382 0.57497,0.90362 1.039905,1.44653 0.480379,0.56094 1.150927,1.21449 1.447328,1.41064 0.434064,0.28725 0.228088,0.67974 -0.345573,0.65849 -0.492106,-0.0182 -1.181935,-0.48755 -2.705729,-1.84083 -0.531437,-0.47197 -1.105735,-0.95771 -1.276217,-1.07941 l -0.309967,-0.22129 -0.297303,0.0515 c -0.929807,0.16097 -2.189137,0.89529 -3.814491,2.22423 -0.405448,0.33151 -0.78119,0.61671 -0.834981,0.63378 -0.148742,0.0472 -0.335953,-0.0982 -0.335953,-0.26101 0,-0.18938 0.383813,-0.96035 0.75996,-1.52655 0.363378,-0.54697 0.994787,-1.23147 1.424365,-1.54412 0.271003,-0.19724 0.287208,-0.21884 0.185807,-0.24768 -0.0611,-0.0174 -0.805198,-0.0338 -1.653553,-0.0364 -1.474247,-0.005 -1.546762,-0.009 -1.639629,-0.10201 -0.106034,-0.10603 -0.125891,-0.29278 -0.04684,-0.44049 0.137375,-0.25669 1.26317,-0.62548 2.569465,-0.84171 l 0.659466,-0.10916 -0.239107,-0.16664 c -0.131509,-0.0916 -0.402331,-0.29781 -0.601827,-0.45813 -0.596825,-0.47962 -0.490406,-0.44391 -1.042143,-0.34976 -2.529995,0.43173 -4.49174,2.17911 -5.360215,4.77452 -0.386087,1.1538 -0.532026,2.22546 -0.491276,3.60752 0.03964,1.34444 0.219666,2.08397 0.788399,3.23864 0.859978,1.74598 2.534505,3.25274 4.589962,4.1301 1.939249,0.82775 4.141587,1.19553 6.242733,1.04249 z m -1.995247,-16.60804 c 0.01464,-0.0237 -4.77e-4,-0.0644 -0.03357,-0.0904 -0.079,-0.0621 -0.424554,-0.11452 -0.424554,-0.0644 0,0.0214 0.08198,0.0726 0.182181,0.11368 0.224554,0.0921 0.242736,0.0948 0.275942,0.0411 z m 3.306949,-0.0768 0.242908,-0.11862 -0.261574,0.01 c -0.211059,0.008 -0.275533,0.031 -0.333851,0.11924 -0.06624,0.10018 -0.06469,0.10925 0.01867,0.10868 0.05002,-3.7e-4 0.200252,-0.054 0.333851,-0.11924 z"
         id="path4541"
         inkscape:connector-curvature="0" />
      <path
         style="fill:#5d5233;stroke-width:0.04858158"
         d="m 63.790384,231.23754 c -5.116322,-0.48467 -8.880837,-3.27576 -9.758286,-7.23499 -0.235743,-1.06372 -0.265115,-2.06754 -0.09988,-3.4135 0.35874,-2.92219 1.844257,-5.2166 4.117497,-6.35957 0.455882,-0.22921 1.380758,-0.54526 1.839981,-0.62876 0.385678,-0.0701 0.42138,-0.13398 0.220448,-0.39427 -0.102222,-0.13241 -0.135632,-0.22372 -0.124433,-0.34007 0.01462,-0.15187 0.02537,-0.1597 0.238322,-0.17354 0.195876,-0.0127 0.309135,0.0296 0.930826,0.34755 0.389299,0.19912 0.737108,0.35946 0.772911,0.35631 0.118449,-0.0104 0.931515,0.0702 1.441568,0.14298 0.358714,0.0512 0.519882,0.0568 0.564641,0.0196 0.04447,-0.0369 0.07025,-0.28776 0.08887,-0.86492 0.03479,-1.07786 0.184865,-1.5865 0.53118,-1.80031 0.443577,-0.27385 1.630995,-0.52559 2.27194,-0.48166 0.663518,0.0455 0.874734,0.24928 0.875046,0.8443 2.02e-4,0.40237 -0.156086,1.04918 -0.407265,1.6854 -0.09317,0.236 -0.156576,0.46253 -0.140894,0.5034 0.02446,0.0637 0.143168,0.0713 0.834969,0.0535 l 0.806457,-0.0208 0.558688,-0.27192 c 0.703453,-0.34238 0.929591,-0.41223 1.093229,-0.33767 0.172157,0.0784 0.163048,0.29792 -0.02107,0.50762 -0.09331,0.10628 -0.128568,0.18451 -0.1023,0.22701 0.02204,0.0357 0.243735,0.11633 0.492648,0.17925 2.409757,0.60915 4.130288,2.25637 4.915512,4.70606 0.517306,1.61386 0.643631,3.61646 0.326342,5.17342 -0.801048,3.93081 -4.385032,6.84334 -9.23648,7.50604 -0.679709,0.0928 -2.373996,0.13172 -3.030474,0.0695 z m 2.13759,-0.43492 c 4.557242,-0.33193 8.201443,-2.75287 9.420015,-6.25797 0.296089,-0.85166 0.374532,-1.3214 0.403699,-2.41742 0.04691,-1.7629 -0.215495,-3.16744 -0.836805,-4.47904 -0.884103,-1.86636 -2.536697,-3.12202 -4.653207,-3.53555 l -0.427293,-0.0835 -0.204268,0.15178 c -0.112347,0.0835 -0.537659,0.38688 -0.945137,0.67424 -0.407478,0.28735 -0.740869,0.53924 -0.740869,0.55974 0,0.0205 0.04644,0.0373 0.103205,0.0373 0.416163,0 2.047829,0.43419 2.938535,0.78194 0.79063,0.30868 1.107115,0.57905 1.015548,0.86755 -0.09424,0.29691 -0.426879,0.30802 -1.725372,0.0576 -1.587545,-0.30612 -3.06064,-0.47453 -3.06064,-0.34989 0,0.10382 0.57497,0.90362 1.039905,1.44653 0.480379,0.56094 1.150927,1.21449 1.447328,1.41064 0.434064,0.28725 0.228088,0.67974 -0.345573,0.65849 -0.492106,-0.0182 -1.181935,-0.48755 -2.705729,-1.84083 -0.531437,-0.47197 -1.105735,-0.95771 -1.276217,-1.07941 l -0.309967,-0.22129 -0.297303,0.0515 c -0.929807,0.16097 -2.189137,0.89529 -3.814491,2.22423 -0.405448,0.33151 -0.78119,0.61671 -0.834981,0.63378 -0.148742,0.0472 -0.335953,-0.0982 -0.335953,-0.26101 0,-0.18938 0.383813,-0.96035 0.75996,-1.52655 0.363378,-0.54697 0.994787,-1.23147 1.424365,-1.54412 0.271003,-0.19724 0.287208,-0.21884 0.185807,-0.24768 -0.0611,-0.0174 -0.805198,-0.0338 -1.653553,-0.0364 -1.474247,-0.005 -1.546762,-0.009 -1.639629,-0.10201 -0.106034,-0.10603 -0.125891,-0.29278 -0.04684,-0.44049 0.137375,-0.25669 1.26317,-0.62548 2.569465,-0.84171 l 0.659466,-0.10916 -0.239107,-0.16664 c -0.131509,-0.0916 -0.402331,-0.29781 -0.601827,-0.45813 -0.596825,-0.47962 -0.490406,-0.44391 -1.042143,-0.34976 -2.529995,0.43173 -4.49174,2.17911 -5.360215,4.77452 -0.386087,1.1538 -0.532026,2.22546 -0.491276,3.60752 0.03964,1.34444 0.219666,2.08397 0.788399,3.23864 0.859978,1.74598 2.534505,3.25274 4.589962,4.1301 1.939249,0.82775 4.141587,1.19553 6.242733,1.04249 z m 2.057464,-11.98615 c -0.03899,-0.0468 -0.181029,-0.21619 -0.315641,-0.37651 -0.627964,-0.74789 -1.183135,-1.64157 -1.183135,-1.90453 0,-0.11535 0.03313,-0.17966 0.122857,-0.23845 0.18416,-0.12066 1.594777,-0.0676 2.594948,0.0975 0.412638,0.0682 0.759214,0.11494 0.770167,0.10399 0.03668,-0.0367 -0.785183,-0.26414 -1.402377,-0.38813 -0.335875,-0.0675 -0.864743,-0.14106 -1.175263,-0.16351 -0.630759,-0.0456 -0.728824,-0.0901 -0.706342,-0.32049 0.01172,-0.1201 0.06155,-0.17884 0.25077,-0.29563 0.567588,-0.35031 1.819346,-1.19347 1.87958,-1.26604 0.08008,-0.0965 0.0226,-0.0734 -0.831461,0.33343 -0.565682,0.26949 -1.265118,0.53617 -1.608796,0.61339 -0.152293,0.0342 -0.207384,0.0246 -0.307037,-0.0538 -0.06679,-0.0525 -0.121444,-0.12057 -0.121444,-0.15118 0,-0.0306 0.172284,-0.41707 0.382853,-0.8588 0.442615,-0.92852 0.695944,-1.58342 0.831977,-2.15084 0.12452,-0.5194 0.123141,-0.69075 -0.0066,-0.8205 -0.09737,-0.0974 -0.13825,-0.10197 -0.692287,-0.0779 -0.608368,0.0264 -1.286973,0.18206 -1.608371,0.36893 -0.331079,0.19249 -0.466573,1.13747 -0.369961,2.5802 l 0.06019,0.89875 -0.105873,0.0857 c -0.05823,0.0472 -0.13394,0.0857 -0.168246,0.0857 -0.243276,0 -1.374341,-0.45187 -2.234488,-0.89269 -0.86603,-0.44384 -0.938467,-0.45418 -0.459452,-0.0656 0.515487,0.4182 1.350304,0.90422 1.808035,1.05261 0.226675,0.0735 0.327482,0.17079 0.327482,0.3161 0,0.2087 -0.08655,0.22804 -1.078377,0.2409 -0.746959,0.01 -1.04633,0.0344 -1.471376,0.12158 -0.29349,0.0602 -0.563343,0.12605 -0.599675,0.14638 -0.03633,0.0203 0.324037,0.0507 0.800817,0.0676 1.240658,0.0438 1.965579,0.16552 2.086757,0.35046 0.126671,0.19332 0.04685,0.30418 -0.348895,0.48452 -0.465577,0.21217 -0.844499,0.4659 -1.219155,0.81637 -0.331264,0.30986 -0.873947,0.98972 -0.827282,1.03639 0.0162,0.0162 0.188922,-0.0899 0.383832,-0.23571 0.893482,-0.66852 1.735847,-1.16892 2.426227,-1.44126 0.45164,-0.17817 1.115239,-0.31876 1.293447,-0.27403 0.207187,0.052 0.718925,0.41927 1.302156,0.93456 1.312659,1.15974 1.504939,1.32449 1.546378,1.32499 0.02418,3.7e-4 0.01206,-0.0377 -0.02693,-0.0845 z m -4.052711,-4.62189 c 0.01464,-0.0237 -4.77e-4,-0.0644 -0.03357,-0.0904 -0.079,-0.0621 -0.424554,-0.11452 -0.424554,-0.0644 0,0.0214 0.08198,0.0726 0.182181,0.11368 0.224554,0.0921 0.242736,0.0948 0.275942,0.0411 z m 3.306949,-0.0768 0.242908,-0.11862 -0.261574,0.01 c -0.211059,0.008 -0.275533,0.031 -0.333851,0.11924 -0.06624,0.10018 -0.06469,0.10925 0.01867,0.10868 0.05002,-3.7e-4 0.200252,-0.054 0.333851,-0.11924 z"
         id="path4539"
         inkscape:connector-curvature="0" />
      <path
         style="fill:#c90c0c;stroke-width:0.04858158"
         d="m 63.790384,231.23754 c -5.116322,-0.48467 -8.880837,-3.27576 -9.758286,-7.23499 -0.485716,-2.19165 -0.08123,-4.97175 0.998854,-6.86529 1.060234,-1.85874 2.711072,-3.07064 4.799473,-3.52333 l 0.452305,-0.0981 0.246008,0.23468 c 0.214802,0.2049 0.230201,0.23165 0.121394,0.21085 -0.184946,-0.0354 -0.92169,0.11401 -1.482006,0.30045 -2.418552,0.80476 -4.065444,2.77847 -4.659052,5.5836 -0.176627,0.83466 -0.232068,1.53274 -0.202194,2.54593 0.03964,1.34444 0.219666,2.08397 0.788399,3.23864 0.859978,1.74598 2.534505,3.25274 4.589962,4.1301 3.751894,1.60147 8.226003,1.39644 11.605338,-0.53183 2.311658,-1.31905 3.821786,-3.28974 4.333597,-5.65528 0.130028,-0.60097 0.181471,-2.17896 0.09544,-2.92753 -0.371605,-3.23349 -1.875351,-5.35663 -4.429186,-6.25356 -0.508218,-0.17849 -1.373554,-0.36939 -1.489068,-0.32849 -0.08986,0.0318 -0.04803,-0.008 0.29606,-0.27937 l 0.174518,-0.13781 0.500003,0.12521 c 2.447957,0.61304 4.167979,2.24913 4.959051,4.71707 0.517306,1.61386 0.643631,3.61646 0.326342,5.17342 -0.801048,3.93081 -4.385032,6.84334 -9.23648,7.50604 -0.679709,0.0928 -2.373996,0.13172 -3.030474,0.0695 z m 5.602063,-10.91179 c 0.03507,-0.014 0.07697,-0.0123 0.09311,0.004 0.01614,0.0161 -0.01255,0.0276 -0.06376,0.0255 -0.05659,-0.002 -0.06811,-0.0138 -0.02935,-0.0293 z m -0.233798,-0.12905 c -0.483361,-0.13168 -1.12184,-0.59619 -2.45429,-1.78558 -1.207354,-1.07772 -1.512785,-1.30715 -1.740136,-1.30715 -0.272053,0 -0.744174,0.15515 -1.333524,0.43822 -0.890657,0.42781 -1.702107,0.9806 -2.852372,1.94317 -0.615495,0.51506 -0.717266,0.57507 -0.824449,0.48611 -0.122557,-0.10171 -0.08858,-0.24247 0.193778,-0.80279 0.490352,-0.97306 1.2162,-1.86412 1.938166,-2.3793 0.178328,-0.12725 0.316008,-0.25609 0.305957,-0.28632 -0.03309,-0.0995 -0.28504,-0.11626 -1.83493,-0.12207 -1.678817,-0.006 -1.719534,-0.0129 -1.689517,-0.27377 0.02215,-0.1925 0.237087,-0.32854 0.808029,-0.51143 0.627066,-0.20087 1.1862,-0.3287 1.880271,-0.42986 0.457871,-0.0667 0.582979,-0.10115 0.582979,-0.16034 0,-0.0415 -0.153032,-0.17971 -0.340071,-0.30724 -0.501955,-0.34224 -1.034686,-0.798 -1.454856,-1.24464 -0.338669,-0.36001 -0.370701,-0.41119 -0.35734,-0.57092 0.01431,-0.17102 0.02021,-0.1758 0.233295,-0.18922 0.197519,-0.0124 0.361613,0.0581 1.700355,0.73085 1.513821,0.76075 2.002973,0.9681 2.085323,0.88393 0.02612,-0.0267 0.03139,-0.20119 0.0124,-0.41077 -0.0449,-0.49561 0.01211,-1.91152 0.089,-2.21046 0.09644,-0.37492 0.270727,-0.68403 0.447092,-0.79291 0.44379,-0.27399 1.63106,-0.52574 2.272161,-0.4818 0.663519,0.0455 0.874735,0.24928 0.875046,0.8443 2.94e-4,0.56528 -0.298891,1.54363 -0.795774,2.60219 -0.187749,0.39998 -0.214142,0.5245 -0.111179,0.5245 0.120419,0 0.639581,-0.23342 1.829645,-0.82264 1.35062,-0.6687 1.63582,-0.77722 1.820955,-0.69286 0.189047,0.0861 0.165834,0.30167 -0.05933,0.55095 -0.182066,0.20156 -1.489745,1.2007 -2.221567,1.69739 -0.213188,0.1447 -0.388082,0.28442 -0.388653,0.31049 -0.0013,0.0613 0.103803,0.0892 0.914455,0.24269 0.76864,0.14552 1.587076,0.38249 2.29089,0.66331 0.578672,0.23089 0.856315,0.41049 0.921617,0.59618 0.0415,0.11801 0.03163,0.15 -0.07242,0.23459 -0.155669,0.12655 -0.464443,0.10267 -1.699375,-0.13147 -1.098594,-0.20829 -1.759681,-0.30223 -2.429943,-0.34531 -0.705342,-0.0453 -0.720527,-0.0216 -0.34862,0.5445 0.539458,0.82115 1.57031,1.96141 2.209533,2.44403 0.199172,0.15037 0.27754,0.2417 0.27754,0.32345 0,0.19807 -0.328654,0.29375 -0.680142,0.198 z m -1.173211,-1.38023 c -0.03899,-0.0468 -0.181029,-0.21619 -0.315641,-0.37651 -0.627964,-0.74789 -1.183135,-1.64157 -1.183135,-1.90453 0,-0.11535 0.03313,-0.17966 0.122857,-0.23845 0.18416,-0.12066 1.594777,-0.0676 2.594948,0.0975 0.412638,0.0682 0.759214,0.11494 0.770167,0.10399 0.03668,-0.0367 -0.785183,-0.26414 -1.402377,-0.38813 -0.335875,-0.0675 -0.864743,-0.14106 -1.175263,-0.16351 -0.630759,-0.0456 -0.728824,-0.0901 -0.706342,-0.32049 0.01172,-0.1201 0.06155,-0.17884 0.25077,-0.29563 0.567588,-0.35031 1.819346,-1.19347 1.87958,-1.26604 0.08008,-0.0965 0.0226,-0.0734 -0.831461,0.33343 -0.565682,0.26949 -1.265118,0.53617 -1.608796,0.61339 -0.152293,0.0342 -0.207384,0.0246 -0.307037,-0.0538 -0.06679,-0.0525 -0.121444,-0.12057 -0.121444,-0.15118 0,-0.0306 0.172284,-0.41707 0.382853,-0.8588 0.442615,-0.92852 0.695944,-1.58342 0.831977,-2.15084 0.12452,-0.5194 0.123141,-0.69075 -0.0066,-0.8205 -0.09737,-0.0974 -0.13825,-0.10197 -0.692287,-0.0779 -0.608368,0.0264 -1.286973,0.18206 -1.608371,0.36893 -0.331079,0.19249 -0.466573,1.13747 -0.369961,2.5802 l 0.06019,0.89875 -0.105873,0.0857 c -0.05823,0.0472 -0.13394,0.0857 -0.168246,0.0857 -0.243276,0 -1.374341,-0.45187 -2.234488,-0.89269 -0.86603,-0.44384 -0.938467,-0.45418 -0.459452,-0.0656 0.515487,0.4182 1.350304,0.90422 1.808035,1.05261 0.226675,0.0735 0.327482,0.17079 0.327482,0.3161 0,0.2087 -0.08655,0.22804 -1.078377,0.2409 -0.746959,0.01 -1.04633,0.0344 -1.471376,0.12158 -0.29349,0.0602 -0.563343,0.12605 -0.599675,0.14638 -0.03633,0.0203 0.324037,0.0507 0.800817,0.0676 1.240658,0.0438 1.965579,0.16552 2.086757,0.35046 0.126671,0.19332 0.04685,0.30418 -0.348895,0.48452 -0.465577,0.21217 -0.844499,0.4659 -1.219155,0.81637 -0.331264,0.30986 -0.873947,0.98972 -0.827282,1.03639 0.0162,0.0162 0.188922,-0.0899 0.383832,-0.23571 0.893482,-0.66852 1.735847,-1.16892 2.426227,-1.44126 0.45164,-0.17817 1.115239,-0.31876 1.293447,-0.27403 0.207187,0.052 0.718925,0.41927 1.302156,0.93456 1.312659,1.15974 1.504939,1.32449 1.546378,1.32499 0.02418,3.7e-4 0.01206,-0.0377 -0.02693,-0.0845 z m -7.969235,1.26637 c 0.03507,-0.014 0.07697,-0.0123 0.09312,0.004 0.01614,0.0161 -0.01255,0.0276 -0.06376,0.0255 -0.0566,-0.002 -0.06811,-0.0138 -0.02935,-0.0293 z m 0.786414,-0.51956 c 0,-0.0101 0.03826,-0.0483 0.08502,-0.085 0.07705,-0.0604 0.07877,-0.0587 0.01834,0.0183 -0.06347,0.0809 -0.10336,0.10666 -0.10336,0.0667 z m 8.592742,-0.11525 c -0.06043,-0.0771 -0.05871,-0.0788 0.01834,-0.0183 0.08092,0.0635 0.10666,0.10336 0.06668,0.10336 -0.01009,0 -0.04835,-0.0383 -0.08502,-0.085 z m -1.991844,-0.29149 c -0.06043,-0.0771 -0.05871,-0.0788 0.01834,-0.0183 0.08092,0.0635 0.10666,0.10336 0.06668,0.10336 -0.01009,0 -0.04835,-0.0382 -0.08502,-0.085 z m -0.411362,-0.36436 -0.09255,-0.10931 0.109309,0.0925 c 0.102722,0.087 0.131425,0.12607 0.09255,0.12607 -0.0092,0 -0.05841,-0.0492 -0.109308,-0.1093 z m -0.460587,-0.41295 -0.117777,-0.1336 0.1336,0.11778 c 0.124869,0.11008 0.155878,0.14942 0.117777,0.14942 -0.0087,0 -0.06882,-0.0601 -0.1336,-0.1336 z m 1.794999,0 c -0.06043,-0.0771 -0.05871,-0.0788 0.01834,-0.0183 0.08092,0.0635 0.10666,0.10336 0.06667,0.10336 -0.01009,0 -0.04835,-0.0383 -0.08502,-0.085 z m -0.29149,-0.34007 c -0.06043,-0.0771 -0.05871,-0.0788 0.01834,-0.0183 0.08093,0.0635 0.10666,0.10336 0.06668,0.10336 -0.01009,0 -0.04835,-0.0383 -0.08502,-0.085 z m -1.943263,-0.0486 c -0.06043,-0.077 -0.05871,-0.0788 0.01834,-0.0183 0.08092,0.0635 0.10666,0.10336 0.06668,0.10336 -0.01009,0 -0.04835,-0.0383 -0.08502,-0.085 z m -5.094868,-0.32198 c 0,-0.0101 0.03826,-0.0483 0.08502,-0.085 0.07705,-0.0604 0.07877,-0.0587 0.01834,0.0183 -0.06347,0.0809 -0.103361,0.10666 -0.10336,0.0667 z m 10.241602,-0.35491 c 0.03507,-0.014 0.07697,-0.0123 0.09311,0.004 0.01614,0.0161 -0.01254,0.0276 -0.06376,0.0255 -0.0566,-0.002 -0.06811,-0.0138 -0.02935,-0.0293 z m 0.592088,-0.0337 c 0,-0.0101 0.03826,-0.0484 0.08502,-0.085 0.07705,-0.0604 0.07877,-0.0587 0.01834,0.0183 -0.06347,0.0809 -0.103361,0.10666 -0.103361,0.0667 z m 0.153417,-0.27315 c 0,-0.0668 0.01104,-0.0941 0.0245,-0.0607 0.01348,0.0334 0.01348,0.0881 0,0.12145 -0.01348,0.0334 -0.0245,0.006 -0.0245,-0.0607 z m -10.355547,0.0302 c 0,-0.0101 0.03826,-0.0483 0.08502,-0.085 0.07705,-0.0604 0.07877,-0.0587 0.01834,0.0183 -0.06347,0.0809 -0.10336,0.10666 -0.10336,0.0667 z m 7.423872,-0.112 c 0.03507,-0.014 0.07697,-0.0123 0.09312,0.004 0.01614,0.0161 -0.01255,0.0276 -0.06376,0.0255 -0.0566,-0.002 -0.06811,-0.0138 -0.02935,-0.0293 z m -0.340071,-0.0486 c 0.03507,-0.014 0.07697,-0.0123 0.09311,0.004 0.01614,0.0161 -0.01255,0.0276 -0.06376,0.0255 -0.0566,-0.002 -0.06811,-0.0138 -0.02935,-0.0293 z m -0.340071,-0.0486 c 0.03507,-0.014 0.07697,-0.0123 0.09311,0.004 0.01614,0.0161 -0.01255,0.0276 -0.06376,0.0255 -0.0566,-0.002 -0.06811,-0.0138 -0.02935,-0.0294 z m -0.537433,-0.0476 c 0.0334,-0.0135 0.08805,-0.0135 0.121453,0 0.0334,0.0135 0.0061,0.0245 -0.06073,0.0245 -0.0668,0 -0.09413,-0.011 -0.06073,-0.0245 z m -5.72959,-0.2925 c 0.03507,-0.014 0.07697,-0.0123 0.09312,0.004 0.01614,0.0161 -0.01255,0.0276 -0.06376,0.0255 -0.0566,-0.002 -0.06811,-0.0138 -0.02935,-0.0293 z m -1.535481,-0.0514 c 0.17919,-0.009 0.485254,-0.009 0.680141,-1.5e-4 0.194888,0.009 0.04828,0.0169 -0.3258,0.0169 -0.374078,1e-4 -0.533532,-0.007 -0.354341,-0.0168 z m -1.758957,-0.51676 c 0,-0.0101 0.03826,-0.0483 0.08502,-0.085 0.07705,-0.0604 0.07877,-0.0587 0.01834,0.0183 -0.06347,0.0809 -0.10336,0.10666 -0.10336,0.0667 z m 9.084755,-0.51319 c 0,-0.0251 0.02161,-0.0591 0.04802,-0.0754 0.02754,-0.017 0.03568,0.002 0.01909,0.0457 -0.0323,0.0842 -0.06712,0.0996 -0.06712,0.0297 z m -6.130388,-0.37613 c 0.03507,-0.014 0.07697,-0.0123 0.09311,0.004 0.01614,0.0161 -0.01255,0.0276 -0.06376,0.0255 -0.0566,-0.002 -0.06811,-0.0138 -0.02935,-0.0293 z m -0.774393,-0.82913 c -0.06043,-0.0771 -0.05871,-0.0788 0.01834,-0.0183 0.08093,0.0635 0.10666,0.10336 0.06667,0.10336 -0.01009,0 -0.04835,-0.0383 -0.08502,-0.085 z m 2.896193,-0.10116 c -0.06794,-0.0624 -0.412336,-0.10826 -0.412336,-0.0549 0,0.0577 -0.09645,0.0194 -0.794458,-0.31506 -0.316712,-0.15178 -0.565581,-0.28621 -0.55304,-0.29875 0.02865,-0.0286 0.964431,0.0575 1.43049,0.13166 l 0.35019,0.0557 0.03138,0.20924 c 0.03618,0.24124 0.0179,0.33647 -0.05222,0.27205 z m 3.09758,-0.23226 c 0.06099,-0.13058 0.128251,-0.26474 0.149459,-0.29814 0.02809,-0.0442 0.225781,-0.0597 0.72798,-0.0568 l 0.68942,0.004 -0.512068,0.25135 c -0.454637,0.22315 -0.54061,0.24942 -0.766563,0.23418 -0.154832,-0.0105 -0.282816,0.006 -0.326812,0.0428 -0.0483,0.0401 -0.03549,-0.0188 0.03858,-0.1774 z"
         id="path4537"
         inkscape:connector-curvature="0" />
      <path
         style="fill:#16863d;stroke-width:0.04858158"
         d="m 63.817563,231.18607 c -1.114721,-0.0915 -2.332827,-0.34816 -3.427889,-0.7224 -0.710601,-0.24285 -1.990286,-0.86507 -2.550533,-1.24015 -2.191929,-1.46748 -3.467632,-3.37392 -3.867485,-5.77966 -0.09566,-0.57553 -0.10825,-2.00385 -0.02355,-2.67198 0.203703,-1.60696 0.682499,-2.97151 1.447687,-4.12587 0.447613,-0.67527 1.28984,-1.51779 1.942847,-1.94354 0.793618,-0.51742 1.572577,-0.83969 2.537645,-1.04986 l 0.458238,-0.0998 0.139195,0.13919 0.139196,0.1392 -0.548852,0.10817 c -2.791489,0.55017 -4.752932,2.47452 -5.528191,5.42364 -0.250493,0.95289 -0.314521,1.49545 -0.315324,2.67199 -8.45e-4,1.23053 0.06204,1.67741 0.367904,2.61457 0.364639,1.11726 1.006018,2.1514 1.89041,3.04803 1.595235,1.6173 3.80232,2.6576 6.558513,3.09133 0.796368,0.12532 3.13762,0.12606 3.910817,0.001 3.76815,-0.6083 6.616351,-2.44677 8.037235,-5.18791 0.567897,-1.09558 0.818934,-2.08464 0.862262,-3.39723 0.140648,-4.26081 -1.788934,-7.25927 -5.207298,-8.09184 -0.267199,-0.0651 -0.5514,-0.11926 -0.63156,-0.12041 l -0.145745,-0.002 0.184417,-0.16295 c 0.156656,-0.13842 0.204192,-0.15658 0.315781,-0.12063 0.07225,0.0233 0.33905,0.0987 0.592887,0.1676 2.72797,0.74047 4.523769,2.85263 5.046297,5.93528 0.573186,3.38153 -0.22999,6.07337 -2.455484,8.22953 -0.845686,0.81934 -1.641127,1.35944 -2.882302,1.95707 -2.008416,0.96705 -4.430233,1.38776 -6.847114,1.18947 z m 5.341086,-10.98937 c -0.483361,-0.13168 -1.12184,-0.59619 -2.45429,-1.78558 -1.207354,-1.07772 -1.512785,-1.30715 -1.740136,-1.30715 -0.272053,0 -0.744174,0.15515 -1.333524,0.43822 -0.890657,0.42781 -1.702107,0.9806 -2.852372,1.94317 -0.615495,0.51506 -0.717266,0.57507 -0.824449,0.48611 -0.122557,-0.10171 -0.08858,-0.24247 0.193778,-0.80279 0.490352,-0.97306 1.2162,-1.86412 1.938166,-2.3793 0.178328,-0.12725 0.316008,-0.25609 0.305957,-0.28632 -0.03309,-0.0995 -0.28504,-0.11626 -1.83493,-0.12207 -1.678817,-0.006 -1.719534,-0.0129 -1.689517,-0.27377 0.02215,-0.1925 0.237087,-0.32854 0.808029,-0.51143 0.627066,-0.20087 1.1862,-0.3287 1.880271,-0.42986 0.457871,-0.0667 0.582979,-0.10115 0.582979,-0.16034 0,-0.0415 -0.153032,-0.17971 -0.340071,-0.30724 -0.501955,-0.34224 -1.034686,-0.798 -1.454856,-1.24464 -0.338669,-0.36001 -0.370701,-0.41119 -0.35734,-0.57092 0.01431,-0.17102 0.02021,-0.1758 0.233295,-0.18922 0.197519,-0.0124 0.361613,0.0581 1.700355,0.73085 1.513821,0.76075 2.002973,0.9681 2.085323,0.88393 0.02612,-0.0267 0.03139,-0.20119 0.0124,-0.41077 -0.0449,-0.49561 0.01211,-1.91152 0.089,-2.21046 0.09644,-0.37492 0.270727,-0.68403 0.447092,-0.79291 0.44379,-0.27399 1.63106,-0.52574 2.272161,-0.4818 0.663519,0.0455 0.874735,0.24928 0.875046,0.8443 2.94e-4,0.56528 -0.298891,1.54363 -0.795774,2.60219 -0.187749,0.39998 -0.214142,0.5245 -0.111179,0.5245 0.120419,0 0.639581,-0.23342 1.829645,-0.82264 1.35062,-0.6687 1.63582,-0.77722 1.820955,-0.69286 0.189047,0.0861 0.165834,0.30167 -0.05933,0.55095 -0.182066,0.20156 -1.489745,1.2007 -2.221567,1.69739 -0.213188,0.1447 -0.388082,0.28442 -0.388653,0.31049 -0.0013,0.0613 0.103803,0.0892 0.914455,0.24269 0.76864,0.14552 1.587076,0.38249 2.29089,0.66331 0.578672,0.23089 0.856315,0.41049 0.921617,0.59618 0.0415,0.11801 0.03163,0.15 -0.07242,0.23459 -0.155669,0.12655 -0.464443,0.10267 -1.699375,-0.13147 -1.098594,-0.20829 -1.759681,-0.30223 -2.429943,-0.34531 -0.705342,-0.0453 -0.720527,-0.0216 -0.34862,0.5445 0.539458,0.82115 1.57031,1.96141 2.209533,2.44403 0.199172,0.15037 0.27754,0.2417 0.27754,0.32345 0,0.19807 -0.328654,0.29375 -0.680142,0.198 z m -1.173211,-1.38023 c -0.03899,-0.0468 -0.181029,-0.21619 -0.315641,-0.37651 -0.627964,-0.74789 -1.183135,-1.64157 -1.183135,-1.90453 0,-0.11535 0.03313,-0.17966 0.122857,-0.23845 0.18416,-0.12066 1.594777,-0.0676 2.594948,0.0975 0.412638,0.0682 0.759214,0.11494 0.770167,0.10399 0.03668,-0.0367 -0.785183,-0.26414 -1.402377,-0.38813 -0.335875,-0.0675 -0.864743,-0.14106 -1.175263,-0.16351 -0.630759,-0.0456 -0.728824,-0.0901 -0.706342,-0.32049 0.01172,-0.1201 0.06155,-0.17884 0.25077,-0.29563 0.567588,-0.35031 1.819346,-1.19347 1.87958,-1.26604 0.08008,-0.0965 0.0226,-0.0734 -0.831461,0.33343 -0.565682,0.26949 -1.265118,0.53617 -1.608796,0.61339 -0.152293,0.0342 -0.207384,0.0246 -0.307037,-0.0538 -0.06679,-0.0525 -0.121444,-0.12057 -0.121444,-0.15118 0,-0.0306 0.172284,-0.41707 0.382853,-0.8588 0.442615,-0.92852 0.695944,-1.58342 0.831977,-2.15084 0.12452,-0.5194 0.123141,-0.69075 -0.0066,-0.8205 -0.09737,-0.0974 -0.13825,-0.10197 -0.692287,-0.0779 -0.608368,0.0264 -1.286973,0.18206 -1.608371,0.36893 -0.331079,0.19249 -0.466573,1.13747 -0.369961,2.5802 l 0.06019,0.89875 -0.105873,0.0857 c -0.05823,0.0472 -0.13394,0.0857 -0.168246,0.0857 -0.243276,0 -1.374341,-0.45187 -2.234488,-0.89269 -0.86603,-0.44384 -0.938467,-0.45418 -0.459452,-0.0656 0.515487,0.4182 1.350304,0.90422 1.808035,1.05261 0.226675,0.0735 0.327482,0.17079 0.327482,0.3161 0,0.2087 -0.08655,0.22804 -1.078377,0.2409 -0.746959,0.01 -1.04633,0.0344 -1.471376,0.12158 -0.29349,0.0602 -0.563343,0.12605 -0.599675,0.14638 -0.03633,0.0203 0.324037,0.0507 0.800817,0.0676 1.240658,0.0438 1.965579,0.16552 2.086757,0.35046 0.126671,0.19332 0.04685,0.30418 -0.348895,0.48452 -0.465577,0.21217 -0.844499,0.4659 -1.219155,0.81637 -0.331264,0.30986 -0.873947,0.98972 -0.827282,1.03639 0.0162,0.0162 0.188922,-0.0899 0.383832,-0.23571 0.893482,-0.66852 1.735847,-1.16892 2.426227,-1.44126 0.45164,-0.17817 1.115239,-0.31876 1.293447,-0.27403 0.207187,0.052 0.718925,0.41927 1.302156,0.93456 1.312659,1.15974 1.504939,1.32449 1.546378,1.32499 0.02418,3.7e-4 0.01206,-0.0377 -0.02693,-0.0845 z m -4.137173,-4.82915 c -0.04788,-0.0268 -0.248241,-0.0574 -0.445246,-0.0679 -0.291126,-0.0156 -0.437644,-0.0559 -0.782549,-0.21525 -0.233396,-0.10783 -0.415434,-0.20454 -0.404527,-0.2149 0.0252,-0.024 0.826527,0.0499 1.318203,0.12157 0.37509,0.0546 0.375341,0.0548 0.406629,0.22156 0.03701,0.1973 0.02353,0.21987 -0.09251,0.15493 z m 3.124213,-0.0706 c 0,-0.004 0.0322,-0.0844 0.07155,-0.17854 l 0.07155,-0.17124 0.669324,-0.003 0.669324,-0.003 -0.364362,0.18814 c -0.200399,0.10348 -0.386224,0.17199 -0.412944,0.15225 -0.02672,-0.0197 -0.196148,-0.0225 -0.376507,-0.006 -0.180359,0.0163 -0.327925,0.0264 -0.327925,0.0224 z"
         id="path4535"
         inkscape:connector-curvature="0" />
      <path
         style="fill:#bd0101;stroke-width:0.04858158"
         d="m 63.817563,231.18607 c -1.114721,-0.0915 -2.332827,-0.34816 -3.427889,-0.7224 -0.710601,-0.24285 -1.990286,-0.86507 -2.550533,-1.24015 -2.191929,-1.46748 -3.467632,-3.37392 -3.867485,-5.77966 -0.09566,-0.57553 -0.10825,-2.00385 -0.02355,-2.67198 0.203703,-1.60696 0.682499,-2.97151 1.447687,-4.12587 0.447613,-0.67527 1.28984,-1.51779 1.942847,-1.94354 0.793618,-0.51742 1.572577,-0.83969 2.537645,-1.04986 l 0.458238,-0.0998 0.139195,0.13919 0.139196,0.1392 -0.548852,0.10817 c -2.791489,0.55017 -4.752932,2.47452 -5.528191,5.42364 -0.250493,0.95289 -0.314521,1.49545 -0.315324,2.67199 -8.45e-4,1.23053 0.06204,1.67741 0.367904,2.61457 0.364639,1.11726 1.006018,2.1514 1.89041,3.04803 1.595235,1.6173 3.80232,2.6576 6.558513,3.09133 0.796368,0.12532 3.13762,0.12606 3.910817,0.001 3.76815,-0.6083 6.616351,-2.44677 8.037235,-5.18791 0.567897,-1.09558 0.818934,-2.08464 0.862262,-3.39723 0.140648,-4.26081 -1.788934,-7.25927 -5.207298,-8.09184 -0.267199,-0.0651 -0.5514,-0.11926 -0.63156,-0.12041 l -0.145745,-0.002 0.184417,-0.16295 c 0.156656,-0.13842 0.204192,-0.15658 0.315781,-0.12063 0.07225,0.0233 0.33905,0.0987 0.592887,0.1676 2.72797,0.74047 4.523769,2.85263 5.046297,5.93528 0.573186,3.38153 -0.22999,6.07337 -2.455484,8.22953 -0.845686,0.81934 -1.641127,1.35944 -2.882302,1.95707 -2.008416,0.96705 -4.430233,1.38776 -6.847114,1.18947 z m 5.341086,-10.98937 c -0.483361,-0.13168 -1.12184,-0.59619 -2.45429,-1.78558 -1.207354,-1.07772 -1.512785,-1.30715 -1.740136,-1.30715 -0.272053,0 -0.744174,0.15515 -1.333524,0.43822 -0.890657,0.42781 -1.702107,0.9806 -2.852372,1.94317 -0.615495,0.51506 -0.717266,0.57507 -0.824449,0.48611 -0.122557,-0.10171 -0.08858,-0.24247 0.193778,-0.80279 0.490352,-0.97306 1.2162,-1.86412 1.938166,-2.3793 0.178328,-0.12725 0.316008,-0.25609 0.305957,-0.28632 -0.03309,-0.0995 -0.28504,-0.11626 -1.83493,-0.12207 -1.678817,-0.006 -1.719534,-0.0129 -1.689517,-0.27377 0.02215,-0.1925 0.237087,-0.32854 0.808029,-0.51143 0.627066,-0.20087 1.1862,-0.3287 1.880271,-0.42986 0.457871,-0.0667 0.582979,-0.10115 0.582979,-0.16034 0,-0.0415 -0.153032,-0.17971 -0.340071,-0.30724 -0.963469,-0.65691 -1.880818,-1.60711 -1.799355,-1.86378 0.04213,-0.13275 0.186942,-0.17012 0.394175,-0.10173 0.09471,0.0313 0.733821,0.33006 1.420249,0.66402 1.390039,0.67626 2.02074,0.95092 2.132326,0.9286 0.06388,-0.0128 0.07715,-0.17082 0.09168,-1.09183 0.02437,-1.54439 0.156179,-2.07999 0.571181,-2.32087 0.67709,-0.393 2.272453,-0.59761 2.73937,-0.35134 0.447516,0.23604 0.427367,1.01491 -0.05875,2.27089 -0.0975,0.2519 -0.194483,0.52359 -0.215525,0.60375 -0.02104,0.0802 -0.107123,0.2924 -0.19129,0.47164 -0.295418,0.62914 -0.30261,0.62921 1.061509,-0.0113 0.440878,-0.20701 1.091567,-0.51217 1.445977,-0.67813 0.719374,-0.33686 0.96803,-0.39761 1.097505,-0.26814 0.193793,0.1938 -0.09337,0.5235 -1.134616,1.30272 -0.440878,0.32993 -0.976023,0.71836 -1.18921,0.86317 -0.213188,0.14482 -0.388081,0.28464 -0.388653,0.31072 -0.0013,0.0613 0.103803,0.0892 0.914455,0.24269 0.76864,0.14551 1.587077,0.38249 2.290891,0.6633 0.578672,0.23089 0.856315,0.41049 0.921617,0.59618 0.0415,0.11801 0.03163,0.15001 -0.07242,0.23459 -0.155669,0.12656 -0.464443,0.10267 -1.699376,-0.13147 -1.098594,-0.20828 -1.759681,-0.30223 -2.429943,-0.34531 -0.705341,-0.0453 -0.720526,-0.0216 -0.34862,0.5445 0.539458,0.82115 1.57031,1.96141 2.209533,2.44403 0.199172,0.15037 0.27754,0.24171 0.27754,0.32345 0,0.19808 -0.328654,0.29375 -0.680141,0.198 z m -0.734944,-0.99743 c -0.03666,-0.05 -0.249118,-0.29817 -0.472131,-0.55154 -0.807029,-0.91688 -1.502773,-2.0261 -1.386827,-2.21099 0.130694,-0.20842 1.387355,-0.17789 2.788228,0.0677 0.387438,0.0679 0.824672,0.13344 0.971631,0.14557 0.251298,0.0208 0.261419,0.0174 0.170054,-0.0556 -0.312036,-0.24938 -2.561989,-0.75006 -3.382635,-0.75273 -0.289518,-9.2e-4 -0.404174,-0.0709 -0.373913,-0.22799 0.0094,-0.0489 0.267742,-0.24028 0.599136,-0.44381 0.606875,-0.37272 1.840774,-1.23438 1.896306,-1.32423 0.08465,-0.13696 -0.08848,-0.079 -0.839638,0.28109 -0.802687,0.3848 -1.539325,0.68336 -1.970687,0.79873 -0.230291,0.0616 -0.373801,0.0123 -0.373801,-0.12847 0,-0.0331 0.149478,-0.37478 0.332174,-0.75921 0.622555,-1.30997 0.930947,-2.22557 0.930947,-2.76391 0,-0.36176 -0.08237,-0.4392 -0.503069,-0.47297 -0.652781,-0.0524 -1.916888,0.24989 -2.11889,0.50669 -0.253152,0.32183 -0.343418,1.14755 -0.277977,2.54282 0.02159,0.46026 0.02774,0.86683 0.01367,0.90349 -0.07564,0.19712 -0.789024,-0.0446 -2.274994,-0.77093 -0.607583,-0.29697 -1.119598,-0.52505 -1.13781,-0.50684 -0.141788,0.14179 1.479521,1.2859 2.180765,1.53891 0.36148,0.13041 0.496948,0.25613 0.42363,0.39313 -0.04594,0.0858 -0.09037,0.0904 -0.594419,0.0617 -0.626731,-0.0357 -1.290752,0.0288 -2.146643,0.20839 -0.608357,0.12767 -0.792898,0.19377 -0.723116,0.259 0.02291,0.0214 0.533541,0.0498 1.134738,0.0632 1.057081,0.0234 1.81852,0.1102 2.048764,0.23342 0.06359,0.034 0.08971,0.091 0.07959,0.17355 -0.01215,0.0992 -0.07122,0.14648 -0.306546,0.24531 -0.419911,0.17635 -0.883212,0.48953 -1.285231,0.86878 -0.539666,0.50909 -1.123767,1.3313 -0.945762,1.3313 0.01543,0 0.272304,-0.1831 0.570834,-0.4069 1.39945,-1.04912 2.592384,-1.64617 3.427693,-1.71553 l 0.321473,-0.0267 0.364362,0.24445 c 0.200399,0.13446 0.797983,0.6299 1.327965,1.10098 1.118511,0.99423 1.421565,1.24094 1.524346,1.24094 0.06408,0 0.06517,-0.0126 0.0078,-0.0909 z m -4.57544,-5.21195 c -0.04788,-0.0268 -0.248241,-0.0574 -0.445246,-0.0679 -0.291126,-0.0156 -0.437644,-0.0559 -0.782549,-0.21525 -0.233396,-0.10783 -0.415434,-0.20454 -0.404527,-0.2149 0.0252,-0.024 0.826527,0.0499 1.318203,0.12157 0.37509,0.0546 0.375341,0.0548 0.406629,0.22156 0.03701,0.1973 0.02353,0.21987 -0.09251,0.15493 z m 3.124213,-0.0706 c 0,-0.004 0.0322,-0.0844 0.07155,-0.17854 l 0.07155,-0.17124 0.669324,-0.003 0.669324,-0.003 -0.364362,0.18814 c -0.200399,0.10348 -0.386224,0.17199 -0.412944,0.15225 -0.02672,-0.0197 -0.196148,-0.0225 -0.376507,-0.006 -0.180359,0.0163 -0.327925,0.0264 -0.327925,0.0224 z"
         id="path4533"
         inkscape:connector-curvature="0" />
      <path
         style="fill:#056736;stroke-width:0.04858158"
         d="m 69.158649,220.1967 c -0.483361,-0.13168 -1.12184,-0.59619 -2.45429,-1.78558 -1.207354,-1.07772 -1.512785,-1.30715 -1.740136,-1.30715 -0.272053,0 -0.744174,0.15515 -1.333524,0.43822 -0.890657,0.42781 -1.702107,0.9806 -2.852372,1.94317 -0.615495,0.51506 -0.717266,0.57507 -0.824449,0.48611 -0.122557,-0.10171 -0.08858,-0.24247 0.193778,-0.80279 0.490352,-0.97306 1.2162,-1.86412 1.938166,-2.3793 0.178328,-0.12725 0.316008,-0.25609 0.305957,-0.28632 -0.03309,-0.0995 -0.28504,-0.11626 -1.83493,-0.12207 -1.678817,-0.006 -1.719534,-0.0129 -1.689517,-0.27377 0.02215,-0.1925 0.237087,-0.32854 0.808029,-0.51143 0.627066,-0.20087 1.1862,-0.3287 1.880271,-0.42986 0.457871,-0.0667 0.582979,-0.10115 0.582979,-0.16034 0,-0.0415 -0.153032,-0.17971 -0.340071,-0.30724 -0.963469,-0.65691 -1.880818,-1.60711 -1.799355,-1.86378 0.04213,-0.13275 0.186942,-0.17012 0.394175,-0.10173 0.09471,0.0313 0.733821,0.33006 1.420249,0.66402 1.390039,0.67626 2.02074,0.95092 2.132326,0.9286 0.06388,-0.0128 0.07715,-0.17082 0.09168,-1.09183 0.02437,-1.54439 0.156179,-2.07999 0.571181,-2.32087 0.67709,-0.393 2.272453,-0.59761 2.73937,-0.35134 0.447516,0.23604 0.427367,1.01491 -0.05875,2.27089 -0.0975,0.2519 -0.194483,0.52359 -0.215525,0.60375 -0.02104,0.0802 -0.107123,0.2924 -0.19129,0.47164 -0.295418,0.62914 -0.30261,0.62921 1.061509,-0.0113 0.440878,-0.20701 1.091567,-0.51217 1.445977,-0.67813 0.719374,-0.33686 0.96803,-0.39761 1.097505,-0.26814 0.193793,0.1938 -0.09337,0.5235 -1.134616,1.30272 -0.440878,0.32993 -0.976023,0.71836 -1.18921,0.86317 -0.213188,0.14482 -0.388081,0.28464 -0.388653,0.31072 -0.0013,0.0613 0.103803,0.0892 0.914455,0.24269 0.76864,0.14551 1.587077,0.38249 2.290891,0.6633 0.578672,0.23089 0.856315,0.41049 0.921617,0.59618 0.0415,0.11801 0.03163,0.15001 -0.07242,0.23459 -0.155669,0.12656 -0.464443,0.10267 -1.699376,-0.13147 -1.098594,-0.20828 -1.759681,-0.30223 -2.429943,-0.34531 -0.705341,-0.0453 -0.720526,-0.0216 -0.34862,0.5445 0.539458,0.82115 1.57031,1.96141 2.209533,2.44403 0.199172,0.15037 0.27754,0.24171 0.27754,0.32345 0,0.19808 -0.328654,0.29375 -0.680141,0.198 z m -0.734944,-0.99743 c -0.03666,-0.05 -0.249118,-0.29817 -0.472131,-0.55154 -0.807029,-0.91688 -1.502773,-2.0261 -1.386827,-2.21099 0.130694,-0.20842 1.387355,-0.17789 2.788228,0.0677 0.387438,0.0679 0.824672,0.13344 0.971631,0.14557 0.251298,0.0208 0.261419,0.0174 0.170054,-0.0556 -0.312036,-0.24938 -2.561989,-0.75006 -3.382635,-0.75273 -0.289518,-9.2e-4 -0.404174,-0.0709 -0.373913,-0.22799 0.0094,-0.0489 0.267742,-0.24028 0.599136,-0.44381 0.606875,-0.37272 1.840774,-1.23438 1.896306,-1.32423 0.08465,-0.13696 -0.08848,-0.079 -0.839638,0.28109 -0.802687,0.3848 -1.539325,0.68336 -1.970687,0.79873 -0.230291,0.0616 -0.373801,0.0123 -0.373801,-0.12847 0,-0.0331 0.149478,-0.37478 0.332174,-0.75921 0.622555,-1.30997 0.930947,-2.22557 0.930947,-2.76391 0,-0.36176 -0.08237,-0.4392 -0.503069,-0.47297 -0.652781,-0.0524 -1.916888,0.24989 -2.11889,0.50669 -0.253152,0.32183 -0.343418,1.14755 -0.277977,2.54282 0.02159,0.46026 0.02774,0.86683 0.01367,0.90349 -0.07564,0.19712 -0.789024,-0.0446 -2.274994,-0.77093 -0.607583,-0.29697 -1.119598,-0.52505 -1.13781,-0.50684 -0.141788,0.14179 1.479521,1.2859 2.180765,1.53891 0.36148,0.13041 0.496948,0.25613 0.42363,0.39313 -0.04594,0.0858 -0.09037,0.0904 -0.594419,0.0617 -0.626731,-0.0357 -1.290752,0.0288 -2.146643,0.20839 -0.608357,0.12767 -0.792898,0.19377 -0.723116,0.259 0.02291,0.0214 0.533541,0.0498 1.134738,0.0632 1.057081,0.0234 1.81852,0.1102 2.048764,0.23342 0.06359,0.034 0.08971,0.091 0.07959,0.17355 -0.01215,0.0992 -0.07122,0.14648 -0.306546,0.24531 -0.419911,0.17635 -0.883212,0.48953 -1.285231,0.86878 -0.539666,0.50909 -1.123767,1.3313 -0.945762,1.3313 0.01543,0 0.272304,-0.1831 0.570834,-0.4069 1.39945,-1.04912 2.592384,-1.64617 3.427693,-1.71553 l 0.321473,-0.0267 0.364362,0.24445 c 0.200399,0.13446 0.797983,0.6299 1.327965,1.10098 1.118511,0.99423 1.421565,1.24094 1.524346,1.24094 0.06408,0 0.06517,-0.0126 0.0078,-0.0909 z"
         id="path4531"
         inkscape:connector-curvature="0" />
    </g>
    <circle
       style="fill:#fe1212;fill-opacity:1;stroke:none;stroke-width:0.26458332"
       id="path4568"
       cx="22.45064"
       cy="221.19232"
       r="4.9444861" />
    <circle
       style="fill:#fe1212;fill-opacity:1;stroke:none;stroke-width:0.38257319"
       id="path4568-7"
       cx="38.544609"
       cy="221.19232"
       r="7.1494598" />
    <text
       xml:space="preserve"
       style="font-style:normal;font-weight:normal;font-size:14.7863369px;line-height:1.25;font-family:sans-serif;letter-spacing:0px;word-spacing:0px;fill:#fe1212;fill-opacity:1;stroke:none;stroke-width:0.36965841"
       x="75.041634"
       y="227.78279"
       id="text4587"><tspan
         sodipodi:role="line"
         id="tspan4585"
         x="75.041634"
         y="227.78279"
         style="font-style:normal;font-variant:normal;font-weight:normal;font-stretch:normal;font-size:19.7151165px;font-family:Cambria;-inkscape-font-specification:'Cambria, Normal';font-variant-ligatures:normal;font-variant-caps:normal;font-variant-numeric:normal;font-feature-settings:normal;text-align:start;writing-mode:lr-tb;text-anchor:start;fill:#fe1212;fill-opacity:1;stroke-width:0.36965841">DISH</tspan></text>
  </g>
</svg>
